<svg width="144" height="21" viewBox="0 0 144 21" fill="none" xmlns="http://www.w3.org/2000/svg">
<path d="M126.457 17.5244V3.00002H135.172C138.38 3.00002 140.981 5.60113 140.981 8.80977V17.5244" stroke="white" stroke-width="5.08353" stroke-linecap="square"/>
<path d="M113.385 3.00002L110.48 3.00001C107.272 3.00001 104.671 5.60113 104.671 8.80976L104.671 11.7146C104.671 14.9233 107.272 17.5244 110.48 17.5244L113.385 17.5244C116.594 17.5244 119.195 14.9233 119.195 11.7146L119.195 8.80977C119.195 5.60113 116.594 3.00002 113.385 3.00002Z" stroke="white" stroke-width="5.08353"/>
<path d="M97.4084 3.00002L97.4084 17.5244" stroke="white" stroke-width="5.08353" stroke-linecap="square"/>
<path d="M75.6218 3.00001L82.884 3.00001M90.1462 3.00002L82.884 3.00001M82.884 17.5244L82.884 3.00001" stroke="white" stroke-width="5.08353" stroke-linecap="square"/>
<path d="M68.3596 3.00002L68.3596 17.5244" stroke="white" stroke-width="5.08353" stroke-linecap="square"/>
<path d="M55.2877 3.00002L46.5731 3.00001L46.5731 17.5244L55.2877 17.5244C58.4963 17.5244 61.0975 14.9233 61.0975 11.7146L61.0975 8.80977C61.0975 5.60113 58.4963 3.00002 55.2877 3.00002Z" stroke="white" stroke-width="5.08353"/>
<path d="M33.5012 3.00002L24.7865 3.00001L24.7865 17.5244L33.5012 17.5244C36.7098 17.5244 39.3109 14.9233 39.3109 11.7146L39.3109 8.80977C39.3109 5.60113 36.7098 3.00002 33.5012 3.00002Z" stroke="white" stroke-width="5.08353"/>
<path d="M3 17.5244V10.6253V10.2622M17.5244 17.5244V10.2622M3 10.2622V8.80975C3 5.60111 5.60112 3 8.80975 3H11.7146C14.9233 3 17.5244 5.60111 17.5244 8.80975V10.2622M3 10.2622H17.5244" stroke="white" stroke-width="5.08353" stroke-linecap="square"/>
</svg>
