<svg width="129" height="21" viewBox="0 0 129 21" fill="none" xmlns="http://www.w3.org/2000/svg">
<path d="M126.457 17.5244L126.457 10.2622L126.457 8.80974C126.457 5.6011 123.856 2.99999 120.647 2.99999L111.933 2.99999L111.933 10.2622L111.933 17.5244" stroke="white" stroke-width="5.08353" stroke-linecap="square"/>
<path d="M95.9559 17.5244L98.8608 17.5244C102.069 17.5244 104.671 14.9232 104.671 11.7146L104.671 10.2622L104.671 8.80974C104.671 5.6011 102.069 2.99999 98.8608 2.99999L95.9559 2.99999C92.7473 2.99999 90.1462 5.6011 90.1462 8.80973L90.1462 10.2622L90.1462 11.7146C90.1462 14.9232 92.7473 17.5244 95.9559 17.5244Z" stroke="white" stroke-width="5.08353"/>
<path d="M82.884 17.5244L82.884 2.99999" stroke="white" stroke-width="5.08353" stroke-linecap="square"/>
<path d="M75.6218 2.99999L68.3596 2.99999L64.7286 2.99999C62.7232 2.99999 61.0975 4.62568 61.0975 6.63108V6.63108C61.0975 8.63648 62.7232 10.2622 64.7286 10.2622L71.9907 10.2622C73.9961 10.2622 75.6218 11.8879 75.6218 13.8933V13.8933C75.6218 15.8987 73.9961 17.5244 71.9907 17.5244L68.3597 17.5244L61.0975 17.5244" stroke="white" stroke-width="5.08353" stroke-linecap="square"/>
<path d="M53.8353 17.5244L53.8353 2.99999" stroke="white" stroke-width="5.08353" stroke-linecap="square"/>
<path d="M32.0487 2.99999L32.0487 7.85569C32.0487 9.39653 32.6608 10.8743 33.7504 11.9638L39.3109 17.5244L44.8715 11.9638C45.961 10.8743 46.5731 9.39654 46.5731 7.8557L46.5731 2.99999" stroke="white" stroke-width="5.08353" stroke-linecap="square" stroke-linejoin="round"/>
<path d="M24.7866 17.5244L24.7866 2.99999" stroke="white" stroke-width="5.08353" stroke-linecap="square"/>
<path d="M17.5244 11.7146L17.5244 8.80973C17.5244 5.6011 14.9233 2.99999 11.7146 2.99999L10.2622 2.99999L3 2.99999L3 17.5244L10.2622 17.5244L11.7146 17.5244C14.9233 17.5244 17.5244 14.9232 17.5244 11.7146Z" stroke="white" stroke-width="5.08353"/>
</svg>
