<svg width="56" height="13" viewBox="0 0 56 13" fill="none" xmlns="http://www.w3.org/2000/svg">
<path d="M30.4608 2H35.0487M39.6367 2H35.0487M35.0487 11.1759V2" stroke="white" stroke-width="3.15539" stroke-linecap="square"/>
<path d="M2 2L0.422307 2C0.422307 1.36188 0.8067 0.786599 1.39624 0.542402C1.98579 0.298205 2.66438 0.433185 3.1156 0.884402L2 2ZM11.1759 2L10.0603 0.884403C10.5115 0.433186 11.1901 0.298205 11.7796 0.542402C12.3692 0.786599 12.7536 1.36188 12.7536 2L11.1759 2ZM12.7536 11.1759L12.7536 12.7536L9.59817 12.7536L9.59817 11.1759L12.7536 11.1759ZM3.57769 11.1759L3.57769 12.7536L0.422306 12.7536L0.422306 11.1759L3.57769 11.1759ZM6.58793 6.58793L7.70353 7.70353L6.58793 8.81913L5.47234 7.70353L6.58793 6.58793ZM9.59817 11.1759L9.59817 2L12.7536 2L12.7536 11.1759L9.59817 11.1759ZM3.57769 2L3.57769 6.58793L0.422307 6.58793L0.422307 2L3.57769 2ZM3.57769 6.58793L3.57769 11.1759L0.422306 11.1759L0.422307 6.58793L3.57769 6.58793ZM3.1156 0.884402L7.70353 5.47233L5.47234 7.70353L0.884403 3.1156L3.1156 0.884402ZM5.47234 5.47233L10.0603 0.884403L12.2915 3.1156L7.70353 7.70353L5.47234 5.47233Z" fill="white"/>
<path d="M25.5391 11.1759L25.5391 6.58793M16.3633 11.1759L16.3633 6.58793M16.3633 6.58793L16.3633 5.2816C16.3633 3.46922 17.8325 2 19.6449 2L22.2575 2C24.0699 2 25.5391 3.46922 25.5391 5.2816L25.5391 6.58793M16.3633 6.58793L25.5391 6.58793" stroke="white" stroke-width="3.15539" stroke-linecap="square"/>
<path d="M44.8241 2L44.8241 6.58793M54 2L54 6.58793M54 11.1759L54 6.58793M44.8241 11.1759L44.8241 6.58793M44.8241 6.58793L54 6.58793" stroke="white" stroke-width="3.15539" stroke-linecap="square"/>
</svg>
