<svg width="260" height="21" viewBox="0 0 260 21" fill="none" xmlns="http://www.w3.org/2000/svg">
<path d="M257.176 17.5244L257.176 10.2622L257.176 8.80976C257.176 5.60112 254.575 3.00001 251.367 3.00001L242.652 3.00001L242.652 10.2622L242.652 17.5244" stroke="white" stroke-width="5.08353" stroke-linecap="square"/>
<path d="M229.58 3.00001L226.675 3.00001C223.467 3.00001 220.865 5.60113 220.865 8.80976L220.865 10.2622L220.865 11.7146C220.865 14.9233 223.467 17.5244 226.675 17.5244L229.58 17.5244C232.789 17.5244 235.39 14.9233 235.39 11.7146L235.39 10.2622L235.39 8.80976C235.39 5.60112 232.789 3.00001 229.58 3.00001Z" stroke="white" stroke-width="5.08353"/>
<path d="M213.603 17.5244L213.603 3.00002" stroke="white" stroke-width="5.08353" stroke-linecap="square"/>
<path d="M206.341 3.00002L199.079 3.00002M191.817 3.00002L199.079 3.00002M199.079 17.5244L199.079 3.00002" stroke="white" stroke-width="5.08353" stroke-linecap="square"/>
<path d="M184.555 17.5244L184.555 10.2622M170.03 17.5244L170.03 10.2622M184.555 10.2622L184.555 8.80976C184.555 5.60112 181.953 3.00001 178.745 3.00001L175.84 3.00001C172.631 3.00001 170.03 5.60113 170.03 8.80976L170.03 10.2622M184.555 10.2622L170.03 10.2622" stroke="white" stroke-width="5.08353" stroke-linecap="square"/>
<path d="M162.768 3.00001L155.506 3.00001H154.053C150.845 3.00001 148.244 5.60113 148.244 8.80976V11.7146C148.244 14.9233 150.845 17.5244 154.053 17.5244H155.506H162.768" stroke="white" stroke-width="5.08353" stroke-linecap="square"/>
<path d="M140.981 17.5244L140.981 3.00002" stroke="white" stroke-width="5.08353" stroke-linecap="square"/>
<path d="M133.719 17.5244L119.195 17.5244L119.195 10.2622L119.195 3.00002" stroke="white" stroke-width="5.08353" stroke-linecap="square"/>
<path d="M97.4084 17.5244L97.4084 10.2622M97.4084 10.2622L97.4084 3.00002L108.302 3.00002C110.307 3.00002 111.933 4.62571 111.933 6.63111V6.63111C111.933 8.63651 110.307 10.2622 108.302 10.2622L97.4084 10.2622Z" stroke="white" stroke-width="5.08353" stroke-linecap="square"/>
<path d="M90.1462 17.5244L90.1462 3.00002" stroke="white" stroke-width="5.08353" stroke-linecap="square"/>
<path d="M82.884 3.00002L75.6218 3.00002M68.3596 3.00002L75.6218 3.00002M75.6218 17.5244L75.6218 3.00002" stroke="white" stroke-width="5.08353" stroke-linecap="square"/>
<path d="M61.0975 17.5244L46.5731 17.5244L46.5731 10.2622L46.5731 3.00002" stroke="white" stroke-width="5.08353" stroke-linecap="square"/>
<path d="M24.7865 3.00002L24.7865 10.2622L24.7865 11.7146C24.7865 14.9233 27.3877 17.5244 30.5963 17.5244L33.5012 17.5244C36.7098 17.5244 39.3109 14.9233 39.3109 11.7146L39.3109 10.2622L39.3109 3.00002" stroke="white" stroke-width="5.08353" stroke-linecap="square"/>
<path d="M14.9826 17.5244L14.9826 20.0661L20.0661 20.0661L20.0661 17.5244L14.9826 17.5244ZM0.458236 17.5244L0.458236 20.0661L5.54176 20.0661L5.54176 17.5244L0.458236 17.5244ZM3 3.00002L4.7973 1.20272C4.07036 0.47578 2.9771 0.258318 2.02731 0.651735C1.07752 1.04515 0.458237 1.97197 0.458237 3.00002L3 3.00002ZM17.5244 3.00002L20.0661 3.00002C20.0661 1.97197 19.4468 1.04515 18.4971 0.651735C17.5473 0.258318 16.454 0.475781 15.7271 1.20272L17.5244 3.00002ZM10.2622 10.2622L8.46488 12.0595L10.2622 13.8568L12.0595 12.0595L10.2622 10.2622ZM0.458237 3.00002L0.458237 10.2622L5.54176 10.2622L5.54176 3.00002L0.458237 3.00002ZM14.9826 10.2622L14.9826 17.5244L20.0661 17.5244L20.0661 10.2622L14.9826 10.2622ZM0.458237 10.2622L0.458236 17.5244L5.54176 17.5244L5.54176 10.2622L0.458237 10.2622ZM20.0661 10.2622L20.0661 3.00002L14.9826 3.00002L14.9826 10.2622L20.0661 10.2622ZM12.0595 12.0595L19.3217 4.79732L15.7271 1.20272L8.46488 8.4649L12.0595 12.0595ZM12.0595 8.4649L4.7973 1.20272L1.2027 4.79732L8.46488 12.0595L12.0595 8.4649Z" fill="white"/>
</svg>
