<svg width="224" height="21" viewBox="0 0 224 21" fill="none" xmlns="http://www.w3.org/2000/svg">
<path d="M220.664 17.5244L220.664 8.80975C220.664 5.60111 218.063 3 214.854 3L213.402 3L206.14 3L206.14 10.2622L206.14 17.5244" stroke="white" stroke-width="5.08353" stroke-linecap="square"/>
<path d="M190.163 17.5244L193.068 17.5244C196.276 17.5244 198.877 14.9233 198.877 11.7146L198.877 10.2622L198.877 8.80975C198.877 5.60112 196.276 3 193.068 3L190.163 3C186.954 3 184.353 5.60112 184.353 8.80975L184.353 10.2622L184.353 11.7146C184.353 14.9233 186.954 17.5244 190.163 17.5244Z" stroke="white" stroke-width="5.08353"/>
<path d="M177.091 17.5244L177.091 3" stroke="white" stroke-width="5.08353" stroke-linecap="square"/>
<path d="M148.97 3L141.708 3H140.255C137.047 3 134.445 5.60112 134.445 8.80975V11.7146C134.445 14.9233 137.047 17.5244 140.255 17.5244H141.708H148.97" stroke="white" stroke-width="5.08353" stroke-linecap="square"/>
<path d="M155.781 3L163.044 3M170.306 3L163.044 3M163.044 3V17.5244" stroke="white" stroke-width="5.08353" stroke-linecap="square"/>
<path d="M112.659 17.5244L112.659 13.8933L112.659 12.9855M127.183 17.5244L127.183 10.2622M127.183 10.2622L127.183 8.80975C127.183 5.60112 124.582 3 121.374 3L119.921 3L118.469 3C115.26 3 112.659 5.60112 112.659 8.80975L112.659 10.2622M127.183 10.2622L112.659 10.2622M112.659 10.2622L112.659 12.0777L112.659 12.9855M112.659 10.2622L112.659 12.9855" stroke="white" stroke-width="5.08353" stroke-linecap="square"/>
<path d="M90.8724 17.5244L90.8724 10.2622M105.397 17.5244L105.397 10.2622M105.397 10.2622V8.80975C105.397 5.60112 102.796 3 99.587 3L98.1346 3L90.8724 3L90.8724 10.2622M105.397 10.2622L98.1346 10.2622L90.8724 10.2622" stroke="white" stroke-width="5.08353" stroke-linecap="square"/>
<path d="M83.6102 3L76.348 3M69.0859 3L76.348 3M76.348 17.5244L76.348 3" stroke="white" stroke-width="5.08353" stroke-linecap="square"/>
<path d="M54.5615 17.5244L53.1091 17.5244C49.9004 17.5244 47.2993 14.9233 47.2993 11.7146L47.2993 10.2622L47.2993 3L54.5615 3L56.0139 3C59.2226 3 61.8237 5.60111 61.8237 8.80975L61.8237 10.2622L61.8237 11.7146C61.8237 14.9233 59.2226 17.5244 56.0139 17.5244L54.5615 17.5244Z" stroke="white" stroke-width="5.08353"/>
<path d="M25.5128 3L25.5128 10.2622L25.5128 11.7146C25.5128 14.9233 28.1139 17.5244 31.3225 17.5244L34.2274 17.5244C37.436 17.5244 40.0371 14.9233 40.0371 11.7146L40.0371 10.2622L40.0371 3" stroke="white" stroke-width="5.08353" stroke-linecap="square"/>
<path d="M3 17.5244L13.8933 17.5244C15.8987 17.5244 17.5244 15.8987 17.5244 13.8933V13.8933C17.5244 11.8879 15.8987 10.2622 13.8933 10.2622L6.63109 10.2622C4.62569 10.2622 3 8.63649 3 6.63109V6.63109C3 4.6257 4.6257 3 6.63109 3L17.5244 3" stroke="white" stroke-width="5.08353" stroke-linecap="square"/>
</svg>
